{"title":"Untitled.Renny.Harlin.Project.2013.HDRiP.XViD-UNiQUE","uid":8666200,"size":1527887142,"categoryP":"video","categoryS":"movies","magnet":"?xt=urn:btih:453bf4d1bf1bee894660ffbedd044d5f19386a90&amp;dn=Untitled.Renny.Harlin.Project.2013.HDRiP.XViD-UNiQUE&amp;tr=udp%3A%2F%2Ftracker.openbittorrent.com%3A80&amp;tr=udp%3A%2F%2Fopen.demonii.com%3A1337&amp;tr=udp%3A%2F%2Ftracker.coppersurfer.tk%3A6969&amp;tr=udp%3A%2F%2Fexodus.desync.com%3A6969","seeders":2,"leechers":0,"uploader":"R0thschild","files":3,"time":1373409460,"description":"              ***********************************************\n\n                PublicHash - Largest Bittorrent Community\n      \n                         &lt;a href=&quot; http://publichash.com/&quot; rel=&quot;nofollow&quot; target=&quot;_NEW&quot;&gt; http://publichash.com/&lt;/a&gt;\n\n          Crystal Clean files - Fast Speed! No Virus! No Fake! Enjoy!\n    \n              ***********************************************\nFormat                                   : AVI\nFormat/Info                              : Audio Video Interleave\nFile size                                : 1.40 GiB\nDuration                                 : 1h 36mn\nOverall bit rate                         : 2 073 Kbps\nWriting application                      : VirtualDubMod 1.5.10.2 (build 2540/release)\nWriting library                          : VirtualDubMod build 2540/release\n\nVideo\nID                                       : 0\nFormat                                   : MPEG-4 Visual\nFormat profile                           : Advanced Simple@L5\nFormat settings, BVOP                    : 2\nFormat settings, QPel                    : No\nFormat settings, GMC                     : No warppoints\nFormat settings, Matrix                  : Default (H.263)\nMuxing mode                              : Packed bitstream\nCodec ID                                 : XVID\nCodec ID/Hint                            : XviD\nDuration                                 : 1h 36mn\nBit rate                                 : 1 869 Kbps\nWidth                                    : 720 pixels\nHeight                                   : 304 pixels\nDisplay aspect ratio                     : 2.35:1\nFrame rate                               : 29.970 fps\nColor space                              : YUV\nChroma subsampling                       : 4:2:0\nBit depth                                : 8 bits\nScan type                                : Progressive\nCompression mode                         : Lossy\nBits/(Pixel*Frame)                       : 0.285\nStream size                              : 1.26 GiB (90%)\nWriting library                          : XviD 64\n\nAudio\nID                                       : 1\nFormat                                   : AC-3\nFormat/Info                              : Audio Coding 3\nMode extension                           : CM (complete main)\nFormat settings, Endianness              : Big\nCodec ID                                 : 2000\nDuration                                 : 1h 36mn\nBit rate mode                            : Constant\nBit rate                                 : 192 Kbps\nChannel(s)                               : 2 channels\nChannel positions                        : Front: L R\nSampling rate                            : 48.0 KHz\nBit depth                                : 16 bits\nCompression mode                         : Lossy\nDelay relative to video                  : 26ms\nStream size                              : 133 MiB (9%)\nAlignment                                : Split accross interleaves\nInterleave, duration                     : 33 ms (1.00 video frame)\nInterleave, preload duration             : 500 ms\n\nSource Used        The Dyatlov Pass Incident 2013 KORSUB 720p HDTVRip x264 AC3-JYK               - Thanks\n\n&quot;The Dyatlov Pass Incident&quot; (original title)\n &lt;a href=&quot;\nhttp://www.imdb.com/title/tt1905040&quot; rel=&quot;nofollow&quot; target=&quot;_NEW&quot;&gt;\nhttp://www.imdb.com/title/tt1905040&lt;/a&gt;\n\nStoryline\n\nThe Dyatlove Pass Incident follows a group of students on a trek to investigate the true life mystery &gt;&gt;\nof nine Russian skiers who befell an unexplained death while skiing in the Russian mountains in 1959. &gt;&gt;\nTo this day, their deaths have been one of the most bizarre unsolved mysteries of the 20th century.\n\nNOTES:\n\nCropped away both lines of subs then resized and then the usual","torrent":{"xt":"urn:btih:453bf4d1bf1bee894660ffbedd044d5f19386a90","amp;dn":"Untitled.Renny.Harlin.Project.2013.HDRiP.XViD-UNiQUE","amp;tr":["udp%3A%2F%2Ftracker.openbittorrent.com%3A80","udp%3A%2F%2Fopen.demonii.com%3A1337","udp%3A%2F%2Ftracker.coppersurfer.tk%3A6969","udp%3A%2F%2Fexodus.desync.com%3A6969"],"infoHash":"453bf4d1bf1bee894660ffbedd044d5f19386a90","infoHashBuffer":{"type":"Buffer","data":[69,59,244,209,191,27,238,137,70,96,255,190,221,4,77,95,25,56,106,144]},"announce":[],"urlList":[]}}